<?xml version="1.0" encoding="UTF-8" standalone="no"?>
<!DOCTYPE svg PUBLIC "-//W3C//DTD SVG 1.1//EN"
 "http://www.w3.org/Graphics/SVG/1.1/DTD/svg11.dtd">
<!-- Generated by graphviz version 2.40.1 (20161225.0304)
 -->
<!-- Title: state transitions Pages: 1 -->
<svg width="500pt" height="434pt"
 viewBox="0.00 0.00 500.00 434.00" xmlns="http://www.w3.org/2000/svg" xmlns:xlink="http://www.w3.org/1999/xlink">
<g id="graph0" class="graph" transform="scale(1 1) rotate(0) translate(4 430)">
<title>state transitions</title>
<polygon fill="#ffffff" stroke="transparent" points="-4,4 -4,-430 496,-430 496,4 -4,4"/>
<g id="clust1" class="cluster state regular">
<title>cluster_l1_nxtState</title>
<path fill="none" stroke="#000000" stroke-width="2" d="M20,-8C20,-8 472,-8 472,-8 478,-8 484,-14 484,-20 484,-20 484,-406 484,-406 484,-412 478,-418 472,-418 472,-418 20,-418 20,-418 14,-418 8,-412 8,-406 8,-406 8,-20 8,-20 8,-14 14,-8 20,-8"/>
<text text-anchor="start" x="215.988" y="-399.2" font-family="Helvetica,sans-Serif" font-size="12.00" fill="#000000">l1_nxtState</text>
</g>
<!-- l1_nxtState -->
<!-- IDLE -->
<g id="node2" class="node state regular">
<title>IDLE</title>
<polygon fill="#ffffff" fill-opacity="0.003922" stroke="transparent" stroke-width="2" points="355,-380 299,-380 299,-344 355,-344 355,-380"/>
<text text-anchor="start" x="313.6644" y="-358.2" font-family="Helvetica,sans-Serif" font-size="12.00" fill="#000000">IDLE</text>
<path fill="none" stroke="#000000" stroke-width="2" d="M311.3333,-345C311.3333,-345 342.6667,-345 342.6667,-345 348.3333,-345 354,-350.6667 354,-356.3333 354,-356.3333 354,-367.6667 354,-367.6667 354,-373.3333 348.3333,-379 342.6667,-379 342.6667,-379 311.3333,-379 311.3333,-379 305.6667,-379 300,-373.3333 300,-367.6667 300,-367.6667 300,-356.3333 300,-356.3333 300,-350.6667 305.6667,-345 311.3333,-345"/>
</g>
<!-- IDLE&#45;&gt;IDLE -->
<g id="edge2" class="edge transition">
<title>IDLE&#45;&gt;IDLE</title>
<path fill="none" stroke="#000000" d="M355.0183,-366.8247C366.888,-367.1883 377,-365.5801 377,-362 377,-359.5387 372.2205,-358.0094 365.3762,-357.4121"/>
<polygon fill="#000000" stroke="#000000" points="365.0957,-353.9049 355.0183,-357.1753 364.9356,-360.903 365.0957,-353.9049"/>
<text text-anchor="start" x="377" y="-359" font-family="Helvetica,sans-Serif" font-size="10.00" fill="#000000">not (gray_ready) &#160;&#160;</text>
</g>
<!-- RD_CENTER -->
<g id="node3" class="node state regular">
<title>RD_CENTER</title>
<polygon fill="#ffffff" fill-opacity="0.003922" stroke="transparent" stroke-width="2" points="374.5,-298 279.5,-298 279.5,-262 374.5,-262 374.5,-298"/>
<text text-anchor="start" x="290.8394" y="-276.2" font-family="Helvetica,sans-Serif" font-size="12.00" fill="#000000">RD_CENTER</text>
<path fill="none" stroke="#000000" stroke-width="2" d="M291.8333,-263C291.8333,-263 362.1667,-263 362.1667,-263 367.8333,-263 373.5,-268.6667 373.5,-274.3333 373.5,-274.3333 373.5,-285.6667 373.5,-285.6667 373.5,-291.3333 367.8333,-297 362.1667,-297 362.1667,-297 291.8333,-297 291.8333,-297 286.1667,-297 280.5,-291.3333 280.5,-285.6667 280.5,-285.6667 280.5,-274.3333 280.5,-274.3333 280.5,-268.6667 286.1667,-263 291.8333,-263"/>
</g>
<!-- IDLE&#45;&gt;RD_CENTER -->
<g id="edge1" class="edge transition">
<title>IDLE&#45;&gt;RD_CENTER</title>
<path fill="none" stroke="#000000" d="M327,-343.8015C327,-333.3976 327,-320.1215 327,-308.3768"/>
<polygon fill="#000000" stroke="#000000" points="330.5001,-308.1476 327,-298.1476 323.5001,-308.1476 330.5001,-308.1476"/>
<text text-anchor="start" x="327" y="-318" font-family="Helvetica,sans-Serif" font-size="10.00" fill="#000000">gray_ready &#160;&#160;</text>
</g>
<!-- RD_SURROUND_PIXEL_ACC -->
<g id="node4" class="node state regular">
<title>RD_SURROUND_PIXEL_ACC</title>
<polygon fill="#ffffff" fill-opacity="0.003922" stroke="transparent" stroke-width="2" points="202.5,-216 15.5,-216 15.5,-180 202.5,-180 202.5,-216"/>
<text text-anchor="start" x="26.5026" y="-194.2" font-family="Helvetica,sans-Serif" font-size="12.00" fill="#000000">RD_SURROUND_PIXEL_ACC</text>
<path fill="none" stroke="#000000" stroke-width="2" d="M27.8333,-181C27.8333,-181 190.1667,-181 190.1667,-181 195.8333,-181 201.5,-186.6667 201.5,-192.3333 201.5,-192.3333 201.5,-203.6667 201.5,-203.6667 201.5,-209.3333 195.8333,-215 190.1667,-215 190.1667,-215 27.8333,-215 27.8333,-215 22.1667,-215 16.5,-209.3333 16.5,-203.6667 16.5,-203.6667 16.5,-192.3333 16.5,-192.3333 16.5,-186.6667 22.1667,-181 27.8333,-181"/>
</g>
<!-- RD_CENTER&#45;&gt;RD_SURROUND_PIXEL_ACC -->
<g id="edge3" class="edge transition">
<title>RD_CENTER&#45;&gt;RD_SURROUND_PIXEL_ACC</title>
<path fill="none" stroke="#000000" d="M279.4284,-262.1061C246.3335,-249.6575 202.0209,-232.9895 166.876,-219.7699"/>
<polygon fill="#000000" stroke="#000000" points="167.8153,-216.3838 157.2233,-216.139 165.3508,-222.9357 167.8153,-216.3838"/>
<text text-anchor="middle" x="233.3895" y="-236" font-family="Helvetica,sans-Serif" font-size="10.00" fill="#000000"> </text>
</g>
<!-- RD_SURROUND_PIXEL_ACC&#45;&gt;RD_SURROUND_PIXEL_ACC -->
<g id="edge5" class="edge transition">
<title>RD_SURROUND_PIXEL_ACC&#45;&gt;RD_SURROUND_PIXEL_ACC</title>
<path fill="none" stroke="#000000" d="M202.8095,-202.3501C215.8102,-201.6336 224.5,-200.1836 224.5,-198 224.5,-196.4647 220.2039,-195.292 213.1339,-194.482"/>
<polygon fill="#000000" stroke="#000000" points="213.0584,-190.9646 202.8095,-193.6499 212.496,-197.942 213.0584,-190.9646"/>
<text text-anchor="start" x="224.5" y="-195" font-family="Helvetica,sans-Serif" font-size="10.00" fill="#000000">not (acc_done_f) &#160;&#160;</text>
</g>
<!-- WB -->
<g id="node5" class="node state regular">
<title>WB</title>
<polygon fill="#ffffff" fill-opacity="0.003922" stroke="transparent" stroke-width="2" points="376,-134 320,-134 320,-98 376,-98 376,-134"/>
<text text-anchor="start" x="338.3352" y="-112.2" font-family="Helvetica,sans-Serif" font-size="12.00" fill="#000000">WB</text>
<path fill="none" stroke="#000000" stroke-width="2" d="M332.3333,-99C332.3333,-99 363.6667,-99 363.6667,-99 369.3333,-99 375,-104.6667 375,-110.3333 375,-110.3333 375,-121.6667 375,-121.6667 375,-127.3333 369.3333,-133 363.6667,-133 363.6667,-133 332.3333,-133 332.3333,-133 326.6667,-133 321,-127.3333 321,-121.6667 321,-121.6667 321,-110.3333 321,-110.3333 321,-104.6667 326.6667,-99 332.3333,-99"/>
</g>
<!-- RD_SURROUND_PIXEL_ACC&#45;&gt;WB -->
<g id="edge4" class="edge transition">
<title>RD_SURROUND_PIXEL_ACC&#45;&gt;WB</title>
<path fill="none" stroke="#000000" d="M161.7454,-179.9032C206.7336,-164.468 270.3068,-142.6563 310.3256,-128.9259"/>
<polygon fill="#000000" stroke="#000000" points="311.6439,-132.174 319.9668,-125.6181 309.3722,-125.5528 311.6439,-132.174"/>
<text text-anchor="start" x="244" y="-154" font-family="Helvetica,sans-Serif" font-size="10.00" fill="#000000">acc_done_f &#160;&#160;</text>
</g>
<!-- WB&#45;&gt;RD_CENTER -->
<g id="edge7" class="edge transition">
<title>WB&#45;&gt;RD_CENTER</title>
<path fill="none" stroke="#000000" d="M348,-134.3688C348,-141.4426 348,-149.5972 348,-157 348,-239 348,-239 348,-239 348,-243.6235 346.929,-248.2497 345.2708,-252.6417"/>
<polygon fill="#000000" stroke="#000000" points="342.0523,-251.259 340.8904,-261.79 348.3659,-254.2821 342.0523,-251.259"/>
<text text-anchor="start" x="348" y="-195" font-family="Helvetica,sans-Serif" font-size="10.00" fill="#000000">not (lbp_done_f) &#160;&#160;</text>
</g>
<!-- DONE -->
<g id="node6" class="node state regular">
<title>DONE</title>
<polygon fill="#ffffff" fill-opacity="0.003922" stroke="transparent" stroke-width="2" points="426,-52 370,-52 370,-16 426,-16 426,-52"/>
<text text-anchor="start" x="380.6684" y="-30.2" font-family="Helvetica,sans-Serif" font-size="12.00" fill="#000000">DONE</text>
<path fill="none" stroke="#000000" stroke-width="2" d="M382.3333,-17C382.3333,-17 413.6667,-17 413.6667,-17 419.3333,-17 425,-22.6667 425,-28.3333 425,-28.3333 425,-39.6667 425,-39.6667 425,-45.3333 419.3333,-51 413.6667,-51 413.6667,-51 382.3333,-51 382.3333,-51 376.6667,-51 371,-45.3333 371,-39.6667 371,-39.6667 371,-28.3333 371,-28.3333 371,-22.6667 376.6667,-17 382.3333,-17"/>
</g>
<!-- WB&#45;&gt;DONE -->
<g id="edge6" class="edge transition">
<title>WB&#45;&gt;DONE</title>
<path fill="none" stroke="#000000" d="M359.0966,-97.8015C365.6994,-86.973 374.1994,-73.033 381.5692,-60.9466"/>
<polygon fill="#000000" stroke="#000000" points="384.7166,-62.5077 386.9344,-52.1476 378.74,-58.8634 384.7166,-62.5077"/>
<text text-anchor="start" x="376" y="-72" font-family="Helvetica,sans-Serif" font-size="10.00" fill="#000000">lbp_done_f &#160;&#160;</text>
</g>
<!-- DONE&#45;&gt;IDLE -->
<g id="edge8" class="edge transition">
<title>DONE&#45;&gt;IDLE</title>
<path fill="none" stroke="#000000" d="M426.3543,-37.9122C447.593,-42.6276 473,-52.8892 473,-75 473,-321 473,-321 473,-321 473,-343.3765 408.6289,-354.1138 365.3717,-358.803"/>
<polygon fill="#000000" stroke="#000000" points="364.7447,-355.3486 355.1503,-359.8427 365.4531,-362.3127 364.7447,-355.3486"/>
<text text-anchor="middle" x="474.3895" y="-195" font-family="Helvetica,sans-Serif" font-size="10.00" fill="#000000"> </text>
</g>
</g>
</svg>
